M48
;Layer_Color=9474304
;FILE_FORMAT=2:5
INCH,LZ
;TYPE=PLATED
T1F00S00C0.03937
T2F00S00C0.04331
T3F00S00C0.04724
T4F00S00C0.05118
T5F00S00C0.05512
T6F00S00C0.11811
%
T01
X0547244Y0375984
X0557244
T02
X0633937Y0193307
X0643937
X0653937
X0663937
X0623937
X0613937
X0603937
T03
X0723228Y0282047
Y0292047
Y0302047
Y0312047
X0623228
Y0302047
Y0292047
Y0282047
Y0322047
Y0332047
Y0342047
Y0352047
Y0362047
Y0372047
Y0382047
Y0392047
Y0402047
Y0412047
Y0422047
Y0432047
Y0442047
Y0452047
Y0462047
X0723228
Y0452047
Y0442047
Y0432047
Y0422047
Y0412047
Y0402047
Y0392047
Y0382047
Y0372047
Y0362047
Y0352047
Y0342047
Y0332047
Y0322047
T04
X053937Y0409449
X054937
X055937
X0559055Y0456693
X0549055
X0539055
T05
X0441378Y0368858
Y0398858
X0441811Y0425197
Y0455197
X0501811
X0511811Y0425197
X0481811
X0501378Y0398858
X0511378Y0368858
X0481378
T06
X0747047Y0109252
X0401575Y0361221
Y0462598
X0747047Y0461614
M30
